<svg width="115" height="40" viewBox="0 0 115 40" fill="none" xmlns="http://www.w3.org/2000/svg">
  <path d="M23.287 22.8684C21.7365 24.5732 19.1006 24.7282 17.395 23.1783C15.6894 21.6285 15.5344 18.9938 17.0849 17.2115C18.6354 15.5067 21.2713 15.3517 22.9769 16.9015C24.76 18.4514 24.8375 21.0861 23.287 22.8684Z" fill="white"/>
  <path d="M10.4952 20.1562C10.4952 20.1562 12.821 18.9938 14.2165 13.7244C15.5344 8.45495 20.5736 5.97522 20.5736 5.97522C20.5736 5.97522 9.7975 -4.71863 1.57976 12.0971C1.57976 12.0971 8.24698 13.3369 10.4952 20.1562Z" fill="white"/>
  <path d="M11.503 1.86812C11.503 1.86812 19.7983 0.240802 24.7599 10.7022C24.7599 10.7022 30.4968 12.562 35.536 7.21505C35.536 7.13756 27.0857 -4.40871 11.503 1.86812Z" fill="white"/>
  <path d="M25.0701 28.0604C25.0701 28.0604 22.8993 26.6655 17.6276 28.1379C12.3558 29.6102 7.70427 26.5105 7.70427 26.5105C7.70427 26.5105 3.82798 41.2339 22.5117 39.9166C22.5117 39.8391 20.341 33.4073 25.0701 28.0604Z" fill="white"/>
  <path d="M8.71212 36.4294C8.71212 36.4294 3.13026 30.0751 9.71996 20.5436C9.71996 20.5436 8.47954 14.6543 1.26964 12.9495C1.26964 12.872 -4.5448 25.9681 8.71212 36.4294Z" fill="white"/>
  <path d="M24.6825 11.5546C24.6825 11.5546 24.5274 14.1894 28.4812 17.9865C32.3575 21.7836 31.9699 27.363 31.9699 27.363C31.9699 27.363 46.6998 23.3334 36.1563 7.83506C36.1563 7.91255 31.6598 13.027 24.6825 11.5546Z" fill="white"/>
  <path d="M40.1101 21.551C40.1101 21.551 37.3967 29.6102 25.8453 28.6028C25.8453 28.6028 21.3488 32.6323 23.442 39.6841C23.442 39.7616 37.7068 38.2118 40.1101 21.551Z" fill="white"/>
  <path d="M49.4907 24.8832H47.3975V15.0417H50.8086C53.2895 15.0417 54.84 16.0491 54.84 18.2964C54.84 20.5436 53.2119 21.7835 50.5761 21.7835H49.4907V24.8832ZM49.4132 19.9237H50.5761C51.8165 19.9237 52.5917 19.4588 52.5917 18.3739C52.5917 17.289 51.894 16.824 50.5761 16.824H49.4132V19.9237Z" fill="white"/>
  <path d="M56.313 19.9237C56.313 16.5916 58.3287 14.8093 61.0421 14.8093C64.0656 14.8093 65.8487 16.7466 65.8487 19.9237C65.8487 23.4109 63.833 25.0382 61.1196 25.0382C58.2511 25.0382 56.313 23.2559 56.313 19.9237ZM63.6004 19.9237C63.6004 17.6765 62.5926 16.6691 61.0421 16.6691C59.6466 16.6691 58.5612 17.6765 58.5612 19.9237C58.5612 22.0935 59.7241 23.1784 61.1971 23.1784C62.5926 23.1784 63.6004 22.171 63.6004 19.9237Z" fill="white"/>
  <path d="M75.2293 24.4958C74.6866 24.7282 73.9889 25.0382 72.5934 25.0382C69.5699 25.0382 67.6317 23.3334 67.6317 20.0787C67.6317 16.6691 69.6474 14.8868 72.826 14.8868C73.9113 14.8868 74.7641 15.1193 75.3068 15.3517L74.8416 17.134C74.2214 16.9016 73.6012 16.8241 73.1361 16.8241C71.1979 16.8241 69.88 17.754 69.88 20.0012C69.88 22.0935 71.1204 23.1009 73.1361 23.1009C73.6012 23.1009 74.299 22.9459 74.8416 22.7134L75.2293 24.4958Z" fill="white"/>
  <path d="M82.9043 22.2485H78.7179L77.7876 24.8832H76.4697L80.1909 15.0417H81.4314L85.1526 24.8832H83.8347L82.9043 22.2485ZM79.1056 21.0861H82.5167L80.8887 16.4366H80.8111L79.1056 21.0861Z" fill="white"/>
  <path d="M89.5716 24.8832H88.3312V16.2041H85.3852V15.0417H92.5175V16.2041H89.5716V24.8832Z" fill="white"/>
  <path d="M93.8355 19.9237C93.8355 16.7466 95.6186 14.8868 98.2545 14.8868C101.2 14.8868 102.751 16.9791 102.751 19.9237C102.751 23.2559 100.89 24.9607 98.332 24.9607C95.5411 25.0382 93.8355 23.1009 93.8355 19.9237ZM101.433 19.9237C101.433 17.2115 100.193 16.0492 98.2545 16.0492C96.5489 16.0492 95.1535 17.289 95.1535 19.9237C95.1535 22.481 96.4714 23.7983 98.4095 23.7983C100.27 23.7983 101.433 22.481 101.433 19.9237Z" fill="white"/>
  <path d="M115 24.8832H113.682L113.062 17.2115L110.581 24.8832H109.263L106.782 17.2115L106.162 24.8832H104.922L105.774 15.0417H107.325L109.961 23.4883L112.597 15.0417H114.147L115 24.8832Z" fill="white"/>
</svg>